<?xml version='1.0' encoding='utf-8'?>
<svg xmlns="http://www.w3.org/2000/svg" xmlns:xlink="http://www.w3.org/1999/xlink" version="1.1" width="215.483pt" height="42.15pt" viewBox="0 -42.15 215.483 42.15" data-generator="dvisvgm-no-fonts">
<g id="page1">
<g transform="matrix(1 0 0 -1 0 0)">
<path d="M12.11329 14.53147C12.11329 14.75553 12.10422 14.77366 11.88016 14.77366C11.32422 14.19991 10.49954 14.19991 10.221724 14.19991V13.92178C10.39204 13.92178 10.93891 13.92178 11.42297 14.15491V9.520221C11.42297 9.188659 11.3961 9.080846 10.56235 9.080846H10.275474V8.803034C10.59829 8.829909 11.3961 8.829909 11.7636 8.829909S12.93797 8.829909 13.26079 8.803034V9.080846H12.97391C12.14016 9.080846 12.11329 9.188659 12.11329 9.520221V14.53147Z"/>
<path d="M12.11329 35.79143C12.11329 36.01549 12.10422 36.03361 11.88016 36.03361C11.32422 35.45986 10.49954 35.45986 10.221724 35.45986V35.18174C10.39204 35.18174 10.93891 35.18174 11.42297 35.41486V30.780178C11.42297 30.448615 11.3961 30.340802 10.56235 30.340802H10.275474V30.06299C10.59829 30.089865 11.3961 30.089865 11.7636 30.089865S12.93797 30.089865 13.26079 30.06299V30.340802H12.97391C12.14016 30.340802 12.11329 30.448615 12.11329 30.780178V35.79143Z"/>
<path d="M34.78988 10.38991H34.53863C34.52082 10.27335 34.44895 9.744284 34.33238 9.600846C34.27863 9.520221 33.6602 9.520221 33.48082 9.520221H31.8852L32.7727 10.36303C34.24301 11.63585 34.78988 12.11116 34.78988 13.02553C34.78988 14.05647 33.93801 14.77366 32.83551 14.77366C31.80457 14.77366 31.105196 13.95772 31.105196 13.1421C31.105196 12.69366 31.490821 12.64897 31.571446 12.64897C31.76863 12.64897 32.0377 12.79241 32.0377 13.11522C32.0377 13.38397 31.84926 13.58116 31.571446 13.58116C31.526446 13.58116 31.499571 13.58116 31.463946 13.57241C31.67895 14.20866 32.2527 14.49553 32.73676 14.49553C33.65113 14.49553 33.96488 13.64397 33.96488 13.02553C33.96488 12.11116 33.27457 11.3671 32.84426 10.90085L31.203946 9.125846C31.105196 9.027096 31.105196 9.009284 31.105196 8.803034H34.53863L34.78988 10.38991Z"/>
<path d="M34.78988 31.64986H34.53863C34.52082 31.5333 34.44895 31.00424 34.33238 30.860803C34.27863 30.780178 33.6602 30.780178 33.48082 30.780178H31.8852L32.7727 31.62299C34.24301 32.8958 34.78988 33.37112 34.78988 34.28549C34.78988 35.31643 33.93801 36.03361 32.83551 36.03361C31.80457 36.03361 31.105196 35.21768 31.105196 34.40205C31.105196 33.95361 31.490821 33.90893 31.571446 33.90893C31.76863 33.90893 32.0377 34.05237 32.0377 34.37518C32.0377 34.64393 31.84926 34.84111 31.571446 34.84111C31.526446 34.84111 31.499571 34.84111 31.463946 34.83236C31.67895 35.46861 32.2527 35.75549 32.73676 35.75549C33.65113 35.75549 33.96488 34.90393 33.96488 34.28549C33.96488 33.37112 33.27457 32.62705 32.84426 32.1608L31.203946 30.385803C31.105196 30.287053 31.105196 30.26924 31.105196 30.06299H34.53863L34.78988 31.64986Z"/>
<path d="M54.64234 11.95866C55.47609 12.27241 55.87047 12.92678 55.87047 13.54553C55.87047 14.23585 55.10828 14.77366 54.17609 14.77366C53.24359 14.77366 52.544527 14.2446 52.544527 13.56335C52.544527 13.26741 52.741715 13.0971 53.00171 13.0971C53.26171 13.0971 53.44984 13.28553 53.44984 13.54553C53.44984 13.85928 53.23484 13.99366 52.92984 13.99366C53.16296 14.37022 53.70984 14.5496 54.14921 14.5496C54.89328 14.5496 55.03672 13.95772 55.03672 13.53647C55.03672 13.26741 54.98297 12.8371 54.7589 12.49647C54.48078 12.09303 54.16703 12.07522 53.90703 12.05741C53.68296 12.03928 53.66515 12.03928 53.59328 12.03928C53.51265 12.03022 53.44109 12.02147 53.44109 11.92272C53.44109 11.80616 53.51265 11.80616 53.66515 11.80616H54.0864C54.8664 11.80616 55.20703 11.17866 55.20703 10.3271C55.20703 9.179596 54.59734 8.856784 54.14015 8.856784C53.96984 8.856784 53.10015 8.901784 52.696715 9.564909C53.01953 9.520221 53.27047 9.744284 53.27047 10.04928C53.27047 10.34491 53.0464 10.53335 52.786402 10.53335C52.56234 10.53335 52.29359 10.39866 52.29359 10.0221C52.29359 9.224284 53.12703 8.605846 54.16703 8.605846C55.28765 8.605846 56.1214 9.412721 56.1214 10.3271C56.1214 11.1071 55.50296 11.77053 54.64234 11.95866Z"/>
<path d="M54.64234 33.21862C55.47609 33.53237 55.87047 34.18674 55.87047 34.80549C55.87047 35.4958 55.10828 36.03361 54.17609 36.03361C53.24359 36.03361 52.544527 35.50455 52.544527 34.8233C52.544527 34.52737 52.741715 34.35705 53.00171 34.35705C53.26171 34.35705 53.44984 34.54549 53.44984 34.80549C53.44984 35.11924 53.23484 35.25362 52.92984 35.25362C53.16296 35.63018 53.70984 35.80955 54.14921 35.80955C54.89328 35.80955 55.03672 35.21768 55.03672 34.79643C55.03672 34.52737 54.98297 34.09705 54.7589 33.75643C54.48078 33.35299 54.16703 33.33518 53.90703 33.31736C53.68296 33.29924 53.66515 33.29924 53.59328 33.29924C53.51265 33.29018 53.44109 33.28143 53.44109 33.18268C53.44109 33.06611 53.51265 33.06611 53.66515 33.06611H54.0864C54.8664 33.06611 55.20703 32.43862 55.20703 31.58705C55.20703 30.439552 54.59734 30.11674 54.14015 30.11674C53.96984 30.11674 53.10015 30.16174 52.696715 30.824865C53.01953 30.780178 53.27047 31.00424 53.27047 31.30924C53.27047 31.60486 53.0464 31.7933 52.786402 31.7933C52.56234 31.7933 52.29359 31.65862 52.29359 31.28205C52.29359 30.48424 53.12703 29.865803 54.16703 29.865803C55.28765 29.865803 56.1214 30.672677 56.1214 31.58705C56.1214 32.36705 55.50296 33.03049 54.64234 33.21862Z"/>
<path d="M73.427019 10.56022V10.2821H75.87452V9.511159C75.87452 9.179596 75.84764 9.080846 75.17514 9.080846H74.97796V8.803034C75.54264 8.829909 76.17014 8.829909 76.23296 8.829909C76.27796 8.829909 76.92327 8.829909 77.48796 8.803034V9.080846H77.29077C76.61858 9.080846 76.59171 9.179596 76.59171 9.511159V10.2821H77.50608V10.56022H76.59171V14.63022C76.59171 14.8096 76.59171 14.8721 76.42139 14.8721C76.31358 14.8721 76.30483 14.86335 76.22389 14.73772L73.427019 10.56022ZM73.713894 10.56022L75.92827 13.8771V10.56022H73.713894Z"/>
<path d="M73.427019 31.82018V31.54205H75.87452V30.771115C75.87452 30.439552 75.84764 30.340802 75.17514 30.340802H74.97796V30.06299C75.54264 30.089865 76.17014 30.089865 76.23296 30.089865C76.27796 30.089865 76.92327 30.089865 77.48796 30.06299V30.340802H77.29077C76.61858 30.340802 76.59171 30.439552 76.59171 30.771115V31.54205H77.50608V31.82018H76.59171V35.89018C76.59171 36.06955 76.59171 36.13205 76.42139 36.13205C76.31358 36.13205 76.30483 36.1233 76.22389 35.99768L73.427019 31.82018ZM73.713894 31.82018L75.92827 35.13705V31.82018H73.713894Z"/>
<path d="M95.359163 11.89585C95.359163 11.7346 95.359163 11.63585 95.48479 11.63585C95.55666 11.63585 95.58354 11.67178 95.63729 11.75241C95.90604 12.12897 96.33635 12.34397 96.8026 12.34397C97.76198 12.34397 97.76198 10.96366 97.76198 10.64085C97.76198 10.36303 97.76198 9.8071 97.51073 9.403659C97.26885 9.027096 96.89229 8.856784 96.5426 8.856784C96.01385 8.856784 95.413226 9.188659 95.197913 9.85178C95.206976 9.85178 95.260726 9.83397 95.323538 9.83397C95.5026 9.83397 95.7626 9.95053 95.7626 10.27335C95.7626 10.55116 95.56541 10.71241 95.323538 10.71241C95.135101 10.71241 94.884163 10.60491 94.884163 10.24647C94.884163 9.430534 95.56541 8.605846 96.56073 8.605846C97.64541 8.605846 98.56885 9.484284 98.56885 10.59585C98.56885 11.68085 97.7976 12.56835 96.82073 12.56835C96.39041 12.56835 95.95104 12.42491 95.63729 12.1021V13.86803C95.90604 13.78741 96.18416 13.74272 96.46198 13.74272C97.56479 13.74272 98.2101 14.54053 98.2101 14.6571C98.2101 14.73772 98.15635 14.77366 98.11135 14.77366C98.09354 14.77366 98.07573 14.77366 97.9951 14.72866C97.57354 14.55835 97.16135 14.48678 96.78479 14.48678C96.39916 14.48678 95.99573 14.55835 95.58354 14.72866C95.49385 14.77366 95.47573 14.77366 95.46698 14.77366C95.359163 14.77366 95.359163 14.68397 95.359163 14.53147V11.89585Z"/>
<path d="M95.359163 33.1558C95.359163 32.99455 95.359163 32.8958 95.48479 32.8958C95.55666 32.8958 95.58354 32.93174 95.63729 33.01236C95.90604 33.38893 96.33635 33.60393 96.8026 33.60393C97.76198 33.60393 97.76198 32.22361 97.76198 31.9008C97.76198 31.62299 97.76198 31.06705 97.51073 30.663615C97.26885 30.287053 96.89229 30.11674 96.5426 30.11674C96.01385 30.11674 95.413226 30.448615 95.197913 31.11174C95.206976 31.11174 95.260726 31.09393 95.323538 31.09393C95.5026 31.09393 95.7626 31.21049 95.7626 31.5333C95.7626 31.81112 95.56541 31.97237 95.323538 31.97237C95.135101 31.97237 94.884163 31.86486 94.884163 31.50643C94.884163 30.69049 95.56541 29.865803 96.56073 29.865803C97.64541 29.865803 98.56885 30.74424 98.56885 31.8558C98.56885 32.9408 97.7976 33.8283 96.82073 33.8283C96.39041 33.8283 95.95104 33.68487 95.63729 33.36205V35.12799C95.90604 35.04736 96.18416 35.00268 96.46198 35.00268C97.56479 35.00268 98.2101 35.80049 98.2101 35.91705C98.2101 35.99768 98.15635 36.03361 98.11135 36.03361C98.09354 36.03361 98.07573 36.03361 97.9951 35.98861C97.57354 35.8183 97.16135 35.74674 96.78479 35.74674C96.39916 35.74674 95.99573 35.8183 95.58354 35.98861C95.49385 36.03361 95.47573 36.03361 95.46698 36.03361C95.359163 36.03361 95.359163 35.94393 95.359163 35.79143V33.1558Z"/>
<path d="M116.88826 11.77053C116.88826 12.68491 116.98701 13.19585 117.22889 13.6621C117.40826 14.0296 117.84763 14.5496 118.51107 14.5496C118.69013 14.5496 119.10264 14.51366 119.30889 14.19085C118.97701 14.19085 118.83357 14.02053 118.83357 13.77835C118.83357 13.54553 118.99514 13.36616 119.24607 13.36616C119.49701 13.36616 119.66732 13.52741 119.66732 13.79647C119.66732 14.29835 119.30889 14.77366 118.49295 14.77366C117.33639 14.77366 116.072635 13.63491 116.072635 11.63585C116.072635 9.206471 117.16607 8.605846 118.00889 8.605846C119.00388 8.605846 119.90045 9.439596 119.90045 10.62303C119.90045 11.76147 119.07576 12.6221 118.06264 12.6221C117.52482 12.6221 117.1392 12.30835 116.88826 11.77053ZM117.99982 8.856784C117.48889 8.856784 117.19295 9.278034 117.08545 9.538034C116.91514 9.94147 116.90607 10.68553 116.90607 10.82897C116.90607 11.4296 117.1842 12.39803 118.04482 12.39803C118.18826 12.39803 118.62732 12.39803 118.9142 11.8421C119.08451 11.50147 119.08451 11.0621 119.08451 10.63178C119.08451 10.20147 119.08451 9.762409 118.9142 9.430534C118.63639 8.919596 118.24201 8.856784 117.99982 8.856784Z"/>
<path d="M116.88826 33.03049C116.88826 33.94487 116.98701 34.4558 117.22889 34.92205C117.40826 35.28955 117.84763 35.80955 118.51107 35.80955C118.69013 35.80955 119.10264 35.77362 119.30889 35.4508C118.97701 35.4508 118.83357 35.28049 118.83357 35.0383C118.83357 34.80549 118.99514 34.62612 119.24607 34.62612C119.49701 34.62612 119.66732 34.78737 119.66732 35.05643C119.66732 35.5583 119.30889 36.03361 118.49295 36.03361C117.33639 36.03361 116.072635 34.89486 116.072635 32.8958C116.072635 30.466428 117.16607 29.865803 118.00889 29.865803C119.00388 29.865803 119.90045 30.699553 119.90045 31.88299C119.90045 33.02143 119.07576 33.88205 118.06264 33.88205C117.52482 33.88205 117.1392 33.5683 116.88826 33.03049ZM117.99982 30.11674C117.48889 30.11674 117.19295 30.53799 117.08545 30.79799C116.91514 31.20143 116.90607 31.94549 116.90607 32.08893C116.90607 32.68955 117.1842 33.65799 118.04482 33.65799C118.18826 33.65799 118.62732 33.65799 118.9142 33.10205C119.08451 32.76143 119.08451 32.32205 119.08451 31.89174S119.08451 31.022365 118.9142 30.69049C118.63639 30.179553 118.24201 30.11674 117.99982 30.11674Z"/>
<path d="M141.33978 14.27147C141.4204 14.37022 141.4204 14.38803 141.4204 14.57647H139.18822C138.05853 14.57647 138.03165 14.69303 138.00478 14.86335H137.753841L137.457904 12.9896H137.708841C137.744779 13.19585 137.816654 13.69772 137.933216 13.80553C137.99572 13.85928 138.70415 13.85928 138.82947 13.85928H140.71228L139.85165 12.68491C138.68603 11.08022 138.57853 9.618971 138.57853 9.107721C138.57853 9.009284 138.57853 8.605846 138.99103 8.605846C139.41228 8.605846 139.41228 9.000221 139.41228 9.116784V9.556159C139.41228 10.87397 139.60947 11.91397 140.08478 12.55928L141.33978 14.27147Z"/>
<path d="M141.33978 35.53143C141.4204 35.63018 141.4204 35.64799 141.4204 35.83643H139.18822C138.05853 35.83643 138.03165 35.95299 138.00478 36.1233H137.753841L137.457904 34.24955H137.708841C137.744779 34.4558 137.816654 34.95768 137.933216 35.06549C137.99572 35.11924 138.70415 35.11924 138.82947 35.11924H140.71228L139.85165 33.94487C138.68603 32.34018 138.57853 30.878928 138.57853 30.367678C138.57853 30.26924 138.57853 29.865803 138.99103 29.865803C139.41228 29.865803 139.41228 30.260177 139.41228 30.37674V30.816115C139.41228 32.13393 139.60947 33.17393 140.08478 33.81924L141.33978 35.53143Z"/>
<path d="M159.74888 12.87303C159.48013 13.04335 159.27388 13.28553 159.27388 13.6171C159.27388 14.19991 159.90138 14.5496 160.49294 14.5496C161.18325 14.5496 161.73919 14.06522 161.73919 13.43772S161.20138 12.39803 160.84263 12.19178L159.74888 12.87303ZM161.06669 12.04835C161.51513 12.26335 162.1695 12.71178 162.1695 13.43772C162.1695 14.28053 161.32669 14.77366 160.51981 14.77366C159.57856 14.77366 158.843563 14.10116 158.843563 13.27647C158.843563 12.93585 158.968876 12.61303 159.184188 12.35303C159.33669 12.18272 159.39044 12.14678 159.91044 11.81522C159.121376 11.43866 158.592626 10.89178 158.592626 10.15678C158.592626 9.206471 159.53388 8.605846 160.502 8.605846C161.542 8.605846 162.42044 9.340846 162.42044 10.30897C162.42044 11.17866 161.757 11.60897 161.53294 11.75241C161.43419 11.82428 161.1745 11.98553 161.06669 12.04835ZM160.15231 11.66272L161.282 10.96366C161.48825 10.82897 161.93638 10.5421 161.93638 9.99522C161.93638 9.287096 161.21919 8.856784 160.51106 8.856784C159.73106 8.856784 159.076688 9.412721 159.076688 10.15678C159.076688 10.8021 159.52481 11.34022 160.15231 11.66272Z"/>
<path d="M159.74888 34.13299C159.48013 34.3033 159.27388 34.54549 159.27388 34.87705C159.27388 35.45986 159.90138 35.80955 160.49294 35.80955C161.18325 35.80955 161.73919 35.32518 161.73919 34.69768S161.20138 33.65799 160.84263 33.45174L159.74888 34.13299ZM161.06669 33.3083C161.51513 33.5233 162.1695 33.97174 162.1695 34.69768C162.1695 35.54049 161.32669 36.03361 160.51981 36.03361C159.57856 36.03361 158.843563 35.36111 158.843563 34.53643C158.843563 34.1958 158.968876 33.87299 159.184188 33.61299C159.33669 33.44268 159.39044 33.40674 159.91044 33.07518C159.121376 32.69862 158.592626 32.15174 158.592626 31.41674C158.592626 30.466428 159.53388 29.865803 160.502 29.865803C161.542 29.865803 162.42044 30.600803 162.42044 31.56893C162.42044 32.43862 161.757 32.86893 161.53294 33.01236C161.43419 33.08424 161.1745 33.24549 161.06669 33.3083ZM160.15231 32.92268L161.282 32.22361C161.48825 32.08893 161.93638 31.80205 161.93638 31.25518C161.93638 30.547053 161.21919 30.11674 160.51106 30.11674C159.73106 30.11674 159.076688 30.672677 159.076688 31.41674C159.076688 32.06205 159.52481 32.60018 160.15231 32.92268Z"/>
<path d="M182.86453 11.6271V11.4296C182.86453 9.242409 181.86953 8.856784 181.3586 8.856784C181.15235 8.856784 180.69516 8.892721 180.462035 9.188659H180.49797C180.56985 9.170534 180.91922 9.242409 180.91922 9.600846C180.91922 9.83397 180.75797 10.01335 180.50703 10.01335C180.255785 10.01335 180.085472 9.85178 180.085472 9.583034C180.085472 8.991159 180.56078 8.605846 181.36766 8.605846C182.52391 8.605846 183.68047 9.789284 183.68047 11.75241C183.68047 14.18178 182.60485 14.77366 181.79797 14.77366C180.76703 14.77366 179.85266 13.93991 179.85266 12.76553C179.85266 11.6271 180.67735 10.76647 181.69016 10.76647C182.34485 10.76647 182.70328 11.24147 182.86453 11.6271ZM181.70828 10.99053C181.56485 10.99053 181.12547 10.99053 180.8386 11.54616C180.66828 11.88678 180.66828 12.32616 180.66828 12.75647S180.66828 13.63491 180.85672 13.97585C181.12547 14.43303 181.47516 14.5496 181.79797 14.5496C182.40735 14.5496 182.64953 13.93085 182.68547 13.84116C182.81078 13.5096 182.84672 12.96272 182.84672 12.5771C182.84672 11.92272 182.55078 10.99053 181.70828 10.99053Z"/>
<path d="M182.86453 32.88705V32.68955C182.86453 30.502365 181.86953 30.11674 181.3586 30.11674C181.15235 30.11674 180.69516 30.152677 180.462035 30.448615H180.49797C180.56985 30.43049 180.91922 30.502365 180.91922 30.860803C180.91922 31.09393 180.75797 31.2733 180.50703 31.2733C180.255785 31.2733 180.085472 31.11174 180.085472 30.84299C180.085472 30.251115 180.56078 29.865803 181.36766 29.865803C182.52391 29.865803 183.68047 31.04924 183.68047 33.01236C183.68047 35.44174 182.60485 36.03361 181.79797 36.03361C180.76703 36.03361 179.85266 35.19987 179.85266 34.02549C179.85266 32.88705 180.67735 32.02643 181.69016 32.02643C182.34485 32.02643 182.70328 32.50143 182.86453 32.88705ZM181.70828 32.25049C181.56485 32.25049 181.12547 32.25049 180.8386 32.80611C180.66828 33.14674 180.66828 33.58611 180.66828 34.01643C180.66828 34.44674 180.66828 34.89486 180.85672 35.2358C181.12547 35.69299 181.47516 35.80955 181.79797 35.80955C182.40735 35.80955 182.64953 35.1908 182.68547 35.10112C182.81078 34.76955 182.84672 34.22268 182.84672 33.83705C182.84672 33.18268 182.55078 32.25049 181.70828 32.25049Z"/>
<path d="M198.64418 11.692043C198.64418 11.952043 198.42887 12.176106 198.16012 12.176106C197.89106 12.176106 197.675744 11.952043 197.675744 11.692043C197.675744 11.422981 197.89106 11.207981 198.16012 11.207981C198.42887 11.207981 198.64418 11.422981 198.64418 11.692043Z"/>
<path d="M202.73606 11.692043C202.73606 11.952043 202.52074 12.176106 202.25199 12.176106C201.98293 12.176106 201.76762 11.952043 201.76762 11.692043C201.76762 11.422981 201.98293 11.207981 202.25199 11.207981C202.52074 11.207981 202.73606 11.422981 202.73606 11.692043Z"/>
<path d="M206.83684 11.692043C206.83684 11.952043 206.62153 12.176106 206.35278 12.176106C206.08371 12.176106 205.8684 11.952043 205.8684 11.692043C205.8684 11.422981 206.08371 11.207981 206.35278 11.207981C206.62153 11.207981 206.83684 11.422981 206.83684 11.692043Z"/>
<path d="M198.64418 32.951098C198.64418 33.211098 198.42887 33.43516 198.16012 33.43516C197.89106 33.43516 197.675744 33.211098 197.675744 32.951098C197.675744 32.682035 197.89106 32.467035 198.16012 32.467035C198.42887 32.467035 198.64418 32.682035 198.64418 32.951098Z"/>
<path d="M202.73606 32.951098C202.73606 33.211098 202.52074 33.43516 202.25199 33.43516C201.98293 33.43516 201.76762 33.211098 201.76762 32.951098C201.76762 32.682035 201.98293 32.467035 202.25199 32.467035C202.52074 32.467035 202.73606 32.682035 202.73606 32.951098Z"/>
<path d="M206.83684 32.951098C206.83684 33.211098 206.62153 33.43516 206.35278 33.43516C206.08371 33.43516 205.8684 33.211098 205.8684 32.951098C205.8684 32.682035 206.08371 32.467035 206.35278 32.467035C206.62153 32.467035 206.83684 32.682035 206.83684 32.951098Z"/>
<path d="M17.5156 27.1328L26.8047 17.8398" stroke="#000" fill="none" stroke-width=".3985" stroke-miterlimit="10"/>
<path d="M27.085954 19.812552C26.734395 19.320363 26.875018 17.910204 27.015644 17.628954C26.734395 17.769582 25.328144 17.910204 24.832052 17.558639" stroke="#000" fill="none" stroke-width=".318785" stroke-miterlimit="10" stroke-linecap="round" stroke-linejoin="round"/>
<path d="M38.7773 27.1328L48.0664 17.8398" stroke="#000" fill="none" stroke-width=".3985" stroke-miterlimit="10"/>
<path d="M48.347616 19.812552C47.996057 19.320363 48.136684 17.910209 48.277311 17.628958C47.996056 17.769584 46.585904 17.910206 46.09372 17.558646" stroke="#000" fill="none" stroke-width=".318785" stroke-miterlimit="10" stroke-linecap="round" stroke-linejoin="round"/>
<path d="M60.0391 27.1328L69.3281 17.8398" stroke="#000" fill="none" stroke-width=".3985" stroke-miterlimit="10"/>
<path d="M69.609371 19.812545C69.257803 19.320361 69.398433 17.910204 69.539057 17.628957C69.257805 17.769579 67.84765 17.910204 67.355461 17.558639" stroke="#000" fill="none" stroke-width=".318785" stroke-miterlimit="10" stroke-linecap="round" stroke-linejoin="round"/>
<path d="M81.3008 27.1328L90.59 17.8398" stroke="#000" fill="none" stroke-width=".3985" stroke-miterlimit="10"/>
<path d="M90.871098 19.812525C90.519536 19.320338 90.66016 17.910181 90.800783 17.628928C90.515627 17.769554 89.10938 17.91018 88.617195 17.55862" stroke="#000" fill="none" stroke-width=".31878" stroke-miterlimit="10" stroke-linecap="round" stroke-linejoin="round"/>
<path d="M102.559 27.1328L111.848 17.8398" stroke="#000" fill="none" stroke-width=".3985" stroke-miterlimit="10"/>
<path d="M112.129249 19.812533C111.777685 19.320343 111.918312 17.910184 112.058934 17.628932C111.777685 17.769557 110.371441 17.910179 109.875346 17.558613" stroke="#000" fill="none" stroke-width=".31878" stroke-miterlimit="10" stroke-linecap="round" stroke-linejoin="round"/>
<path d="M123.82 27.1328L133.109 17.8398" stroke="#000" fill="none" stroke-width=".3985" stroke-miterlimit="10"/>
<path d="M133.390225 19.812518C133.038659 19.320341 133.179289 17.910178 133.319911 17.628926C133.038656 17.769556 131.628498 17.910178 131.136315 17.55862" stroke="#000" fill="none" stroke-width=".31878" stroke-miterlimit="10" stroke-linecap="round" stroke-linejoin="round"/>
<path d="M145.082 27.1328L154.371 17.8398" stroke="#000" fill="none" stroke-width=".3985" stroke-miterlimit="10"/>
<path d="M154.652173 19.812532C154.300612 19.320347 154.441233 17.910184 154.58186 17.628937C154.300611 17.769562 152.890452 17.910184 152.39827 17.558627" stroke="#000" fill="none" stroke-width=".31878" stroke-miterlimit="10" stroke-linecap="round" stroke-linejoin="round"/>
<path d="M166.344 27.1328L175.633 17.8398" stroke="#000" fill="none" stroke-width=".3985" stroke-miterlimit="10"/>
<path d="M175.914127 19.812525C175.562568 19.320341 175.703187 17.910178 175.843815 17.628931C175.55866 17.769557 174.152408 17.910178 173.660224 17.55862" stroke="#000" fill="none" stroke-width=".31878" stroke-miterlimit="10" stroke-linecap="round" stroke-linejoin="round"/>
<path d="M187.602 27.1328L198.715 16.0195" stroke="#000" fill="none" stroke-width=".3985" stroke-miterlimit="10"/>
<path d="M198.996233 17.992152C198.644692 17.499958 198.785306 16.089804 198.92593 15.808559C198.644692 15.949183 197.234519 16.089798 196.742347 15.738239" stroke="#000" fill="none" stroke-width=".318782" stroke-miterlimit="10" stroke-linecap="round" stroke-linejoin="round"/>
<path d="M20.1953 11.6914C20.1953 16.3906 16.3906 20.1953 11.6914 20.1953C6.9961 20.1953 3.1875 16.3906 3.1875 11.6914C3.1875 6.9961 6.9961 3.1875 11.6914 3.1875C16.3906 3.1875 20.1953 6.9961 20.1953 11.6914Z" stroke="#000" fill="none" stroke-width=".3985" stroke-miterlimit="10"/>
</g>
</g>
</svg>