<?xml version='1.0' encoding='utf-8'?>
<svg xmlns="http://www.w3.org/2000/svg" xmlns:xlink="http://www.w3.org/1999/xlink" version="1.1" width="160.643pt" height="109.73pt" viewBox="0 -109.73 160.643 109.73" data-generator="dvisvgm-no-fonts">
<g id="page1">
<g transform="matrix(1 0 0 -1 0 0)">
<path d="M3.3867 19.070312H144.6602" stroke="#808080" fill="none" stroke-width=".3985" stroke-miterlimit="10"/>
<path d="M143.4651 20.66406C143.56666 20.066406 144.660413 19.171874 144.961194 19.070312C144.660413 18.972656 143.56666 18.074218 143.4651 17.47656" stroke="#808080" fill="none" stroke-width=".31879" stroke-miterlimit="10" stroke-linecap="round" stroke-linejoin="round"/>
<path d="M151.96622 19.93541C152.02591 20.19416 152.25497 21.11073 152.95216 21.11073C153.00216 21.11073 153.24122 21.11073 153.45028 20.98104C153.17153 20.93135 152.97216 20.68229 152.97216 20.44323C152.97216 20.28385 153.08184 20.09479 153.3506 20.09479C153.56997 20.09479 153.88872 20.27385 153.88872 20.67229C153.88872 21.19041 153.30091 21.32979 152.96216 21.32979C152.38434 21.32979 152.03591 20.80198 151.91622 20.57291C151.66716 21.2301 151.12934 21.32979 150.84059 21.32979C149.80434 21.32979 149.236845 20.04479 149.236845 19.79573C149.236845 19.69635 149.33622 19.69635 149.35622 19.69635C149.435907 19.69635 149.465907 19.71604 149.485595 19.80573C149.82434 20.86166 150.48184 21.11073 150.82059 21.11073C151.00966 21.11073 151.35841 21.02104 151.35841 20.44323C151.35841 20.13448 151.18903 19.46698 150.82059 18.0726C150.66122 17.454788 150.31247 17.036663 149.87434 17.036663C149.81434 17.036663 149.585282 17.036663 149.37622 17.166038C149.625282 17.215726 149.84434 17.425101 149.84434 17.703851C149.84434 17.97291 149.625282 18.0526 149.475907 18.0526C149.176845 18.0526 148.927782 17.793538 148.927782 17.474788C148.927782 17.016663 149.425907 16.817288 149.86434 16.817288C150.52184 16.817288 150.88028 17.514788 150.91028 17.574476C151.02966 17.206038 151.38841 16.817288 151.98591 16.817288C153.01216 16.817288 153.57966 18.10229 153.57966 18.35135C153.57966 18.45104 153.49028 18.45104 153.46028 18.45104C153.3706 18.45104 153.3506 18.41135 153.33091 18.34135C153.00216 17.275726 152.32466 17.036663 152.00591 17.036663C151.61747 17.036663 151.45809 17.355413 151.45809 17.693851C151.45809 17.913226 151.51778 18.13229 151.62747 18.57073L151.96622 19.93541Z" fill="#808080"/>
<path d="M74.253908 13.40234V89.4805" stroke="#808080" fill="none" stroke-width=".3985" stroke-miterlimit="10"/>
<path d="M72.66016 88.28512C73.257814 88.38668 74.152345 89.480433 74.253908 89.781214C74.351564 89.480433 75.250002 88.38668 75.84766 88.28512" stroke="#808080" fill="none" stroke-width=".31879" stroke-miterlimit="10" stroke-linecap="round" stroke-linejoin="round"/>
<path d="M70.22278 103.06119C70.22278 103.24057 70.22278 103.41994 70.02372 103.41994C69.82435 103.41994 69.82435 103.24057 69.82435 103.06119V93.81744C69.82435 93.63807 69.82435 93.45869 70.02372 93.45869C70.22278 93.45869 70.22278 93.63807 70.22278 93.81744V103.06119Z" fill="#808080"/>
<path d="M74.73182 98.95744C74.79151 99.21619 75.02057 100.13275 75.71776 100.13275C75.76776 100.13275 76.00682 100.13275 76.21588 100.00307C75.93713 99.95338 75.73776 99.70432 75.73776 99.46525C75.73776 99.30588 75.84744 99.11682 76.1162 99.11682C76.33557 99.11682 76.65432 99.29588 76.65432 99.69432C76.65432 100.21244 76.06651 100.35182 75.72776 100.35182C75.14995 100.35182 74.80151 99.824 74.68182 99.59494C74.43276 100.25213 73.89495 100.35182 73.6062 100.35182C72.56994 100.35182 72.002445 99.06682 72.002445 98.81775C72.002445 98.71838 72.10182 98.71838 72.12182 98.71838C72.201507 98.71838 72.231508 98.73807 72.251195 98.82775C72.58995 99.88369 73.24744 100.13275 73.5862 100.13275C73.77526 100.13275 74.12401 100.04307 74.12401 99.46525C74.12401 99.1565 73.95463 98.489 73.5862 97.09463C73.42682 96.476817 73.07807 96.058692 72.63995 96.058692C72.57994 96.058692 72.350883 96.058692 72.14182 96.188067C72.390883 96.237754 72.60995 96.447129 72.60995 96.725879C72.60995 96.99494 72.390883 97.07463 72.241508 97.07463C71.942445 97.07463 71.693383 96.815567 71.693383 96.496817C71.693383 96.038692 72.191507 95.839317 72.62995 95.839317C73.28745 95.839317 73.64588 96.536817 73.67588 96.596504C73.79526 96.228067 74.15401 95.839317 74.75151 95.839317C75.77776 95.839317 76.34526 97.12432 76.34526 97.37338C76.34526 97.47307 76.25588 97.47307 76.22588 97.47307C76.1362 97.47307 76.1162 97.43338 76.09651 97.36338C75.76776 96.297754 75.09026 96.058692 74.77151 96.058692C74.38307 96.058692 74.22369 96.377442 74.22369 96.715879C74.22369 96.935254 74.28338 97.15432 74.39307 97.59275L74.73182 98.95744Z" fill="#808080"/>
<path d="M78.67978 103.06119C78.67978 103.24057 78.67978 103.41994 78.48072 103.41994C78.28135 103.41994 78.28135 103.24057 78.28135 103.06119V93.81744C78.28135 93.63807 78.28135 93.45869 78.48072 93.45869C78.67978 93.45869 78.67978 93.63807 78.67978 93.81744V103.06119Z" fill="#808080"/>
<path d="M17.5586 21.06641V17.07812" stroke="#000" fill="none" stroke-width=".3985" stroke-miterlimit="10"/>
<path d="M17.75938 9.43095C17.92876 9.43095 18.10813 9.43095 18.10813 9.63032C18.10813 9.82939 17.92876 9.82939 17.75938 9.82939H12.37032C12.20094 9.82939 12.021881 9.82939 12.021881 9.63032C12.021881 9.43095 12.20094 9.43095 12.37032 9.43095H17.75938Z"/>
<path d="M20.20611 7.906887L21.26204 8.93314C22.81611 10.30782 23.41361 10.84564 23.41361 11.84157C23.41361 12.9772 22.51704 13.77408 21.30204 13.77408C20.17642 13.77408 19.439231 12.85782 19.439231 11.97126C19.439231 11.41345 19.937356 11.41345 19.96704 11.41345C20.13642 11.41345 20.48517 11.53283 20.48517 11.94126C20.48517 12.20033 20.30579 12.45939 19.95704 12.45939C19.877356 12.45939 19.857669 12.45939 19.827669 12.44939C20.05673 13.09689 20.59454 13.46533 21.17236 13.46533C22.07892 13.46533 22.50736 12.65845 22.50736 11.84157C22.50736 11.0447 22.00923 10.25783 21.46142 9.64032L19.548606 7.50845C19.439231 7.399075 19.439231 7.379075 19.439231 7.140012H23.13486L23.41361 8.87314H23.16454C23.11486 8.57439 23.04517 8.136262 22.94548 7.986575C22.87579 7.906887 22.21829 7.906887 21.99923 7.906887H20.20611Z"/>
<path d="M45.9063 21.06641V17.07812" stroke="#000" fill="none" stroke-width=".3985" stroke-miterlimit="10"/>
<path d="M46.10639 9.43095C46.27577 9.43095 46.45514 9.43095 46.45514 9.63032C46.45514 9.82939 46.27577 9.82939 46.10639 9.82939H40.71733C40.54796 9.82939 40.368894 9.82939 40.368894 9.63032C40.368894 9.43095 40.54796 9.43095 40.71733 9.43095H46.10639Z"/>
<path d="M50.21687 13.51533C50.21687 13.75439 50.21687 13.77408 49.98749 13.77408C49.36999 13.13657 48.49343 13.13657 48.174682 13.13657V12.82783C48.37374 12.82783 48.96156 12.82783 49.47968 13.08689V7.926887C49.47968 7.56845 49.44968 7.448762 48.55312 7.448762H48.234369V7.140012C48.58312 7.170012 49.44968 7.170012 49.84812 7.170012S51.11312 7.170012 51.46187 7.140012V7.448762H51.14312C50.24656 7.448762 50.21687 7.55845 50.21687 7.926887V13.51533Z"/>
<path d="M102.6016 21.06641V17.07812" stroke="#000" fill="none" stroke-width=".3985" stroke-miterlimit="10"/>
<path d="M103.03776 13.51533C103.03776 13.75439 103.03776 13.77408 102.80838 13.77408C102.19088 13.13657 101.31432 13.13657 100.99557 13.13657V12.82783C101.19463 12.82783 101.78244 12.82783 102.30057 13.08689V7.926887C102.30057 7.56845 102.27057 7.448762 101.37401 7.448762H101.055257V7.140012C101.40401 7.170012 102.27057 7.170012 102.66901 7.170012S103.93401 7.170012 104.28276 7.140012V7.448762H103.96401C103.06745 7.448762 103.03776 7.55845 103.03776 7.926887V13.51533Z"/>
<path d="M102.6016 21.06641V17.07812" stroke="#000" fill="none" stroke-width=".3985" stroke-miterlimit="10"/>
<path d="M103.03776 13.51533C103.03776 13.75439 103.03776 13.77408 102.80838 13.77408C102.19088 13.13657 101.31432 13.13657 100.99557 13.13657V12.82783C101.19463 12.82783 101.78244 12.82783 102.30057 13.08689V7.926887C102.30057 7.56845 102.27057 7.448762 101.37401 7.448762H101.055257V7.140012C101.40401 7.170012 102.27057 7.170012 102.66901 7.170012S103.93401 7.170012 104.28276 7.140012V7.448762H103.96401C103.06745 7.448762 103.03776 7.55845 103.03776 7.926887V13.51533Z"/>
<path d="M130.9453 21.06641V17.07812" stroke="#000" fill="none" stroke-width=".3985" stroke-miterlimit="10"/>
<path d="M129.72102 7.906887L130.77696 8.93314C132.33102 10.30782 132.92852 10.84564 132.92852 11.84157C132.92852 12.9772 132.03196 13.77408 130.81696 13.77408C129.69133 13.77408 128.954146 12.85782 128.954146 11.97126C128.954146 11.41345 129.452271 11.41345 129.48196 11.41345C129.65133 11.41345 130.00008 11.53283 130.00008 11.94126C130.00008 12.20033 129.82071 12.45939 129.47196 12.45939C129.392271 12.45939 129.372583 12.45939 129.342583 12.44939C129.57165 13.09689 130.10946 13.46533 130.68727 13.46533C131.59383 13.46533 132.02227 12.65845 132.02227 11.84157C132.02227 11.0447 131.52415 10.25783 130.97633 9.64032L129.063521 7.50845C128.954146 7.399075 128.954146 7.379075 128.954146 7.140012H132.64977L132.92852 8.87314H132.67946C132.62977 8.57439 132.56008 8.136262 132.4604 7.986575C132.39071 7.906887 131.73321 7.906887 131.51415 7.906887H129.72102Z"/>
<path d="M76.2461 47.418H72.26172" stroke="#000" fill="none" stroke-width=".3985" stroke-miterlimit="10"/>
<path d="M66.68878 50.58329C66.68878 50.82236 66.68878 50.84204 66.45941 50.84204C65.84191 50.20454 64.96535 50.20454 64.646597 50.20454V49.89579C64.84566 49.89579 65.43347 49.89579 65.9516 50.15486V44.994856C65.9516 44.636418 65.9216 44.516731 65.02503 44.516731H64.706284V44.207981C65.05503 44.237981 65.9216 44.237981 66.32003 44.237981C66.71847 44.237981 67.58503 44.237981 67.93378 44.207981V44.516731H67.61503C66.71847 44.516731 66.68878 44.626418 66.68878 44.994856V50.58329Z"/>
<path d="M76.2461 75.7656H72.26172" stroke="#000" fill="none" stroke-width=".3985" stroke-miterlimit="10"/>
<path d="M65.02503 73.321869L66.08097 74.34812C67.63503 75.72281 68.23253 76.26062 68.23253 77.25656C68.23253 78.39218 67.33597 79.18906 66.12097 79.18906C64.99535 79.18906 64.258159 78.27281 64.258159 77.38624C64.258159 76.82843 64.756284 76.82843 64.78597 76.82843C64.95535 76.82843 65.3041 76.94781 65.3041 77.35624C65.3041 77.61531 65.12472 77.87437 64.77597 77.87437C64.696284 77.87437 64.676597 77.87437 64.646597 77.86437C64.87566 78.51187 65.41347 78.88031 65.99128 78.88031C66.89785 78.88031 67.32628 78.07343 67.32628 77.25656C67.32628 76.45968 66.82816 75.67281 66.28035 75.05531L64.367534 72.923431C64.258159 72.814056 64.258159 72.794056 64.258159 72.554994H67.95378L68.23253 74.28812H67.98347C67.93378 73.98937 67.8641 73.551244 67.76441 73.401556C67.69472 73.321869 67.03722 73.321869 66.81816 73.321869H65.02503Z"/>
<path d="M3.3867 89.9375L74.253908 19.070312L145.1211 89.9375" stroke="#000" fill="none" stroke-width=".79701" stroke-miterlimit="10"/>
</g>
</g>
</svg>