<?xml version='1.0' encoding='utf-8'?>
<svg xmlns="http://www.w3.org/2000/svg" xmlns:xlink="http://www.w3.org/1999/xlink" version="1.1" width="291.664pt" height="159.515pt" viewBox="0 -159.515 291.664 159.515" data-generator="dvisvgm-no-fonts">
<g id="page1">
<g transform="matrix(1 0 0 -1 0 0)">
<path d="M126.012 113.625C124.273 121.0469 121.527 128.5586 116.035 133.8477C113.121 136.6523 109.57 138.6953 105.965 140.5352C102.6211 142.2461 99.1602 143.8164 95.4727 144.5352C83.0391 146.96875 70.5938 139.2148 62.7383 129.2695S50.2773 107.2539 43.8125 96.3555C38.5664 87.5117 32.0703 79.4141 24.5703 72.3828C19.7187 67.8359 14.3984 63.668 10.61328 58.1992C6.83203 52.734 4.78125 45.508 7.33984 39.371C8.92187 35.582 12.07422 32.637 15.5586 30.465C24.0547 25.164 34.4805 24.016 44.4961 23.973C60.5352 23.902 76.582 26.336 91.8828 31.152C97 32.762 102.0391 34.641 106.863 36.996C111.734 39.371 116.41 42.258 120.277 46.059C127.98 53.637 131.793 64.8359 130.797 75.5508C130.254 81.3789 127.656 106.5859 126.012 113.625Z" stroke="#21599e" fill="none" stroke-width="3.5866" stroke-miterlimit="10"/>
<path d="M185.957 116.1562C178.82 113.4727 171.727 109.7773 167.195 103.6445C164.789 100.3906 163.223 96.6016 161.867 92.7969C160.605 89.2539 159.5 85.6211 159.266 81.875C158.465 69.2227 167.766 57.8867 178.645 51.387C189.523 44.887 202.09 41.891 213.734 36.891C223.184 32.84 232.051 27.441 239.996 20.918C245.133 16.699 249.961 11.961 255.871 8.918C261.777 5.875 269.215 4.781 274.969 8.113C278.516 10.172 281.027 13.68 282.73 17.414C286.887 26.527 286.672 37.012 285.414 46.949C283.406 62.8633 278.918 78.4609 272.156 93.0078C269.895 97.8711 267.379 102.6289 264.422 107.1055C261.434 111.625 257.965 115.8906 253.691 119.2266C245.18 125.8828 233.582 128.2148 223.09 125.8359C217.379 124.543 192.723 118.7031 185.957 116.1562Z" stroke="#ad3040" fill="none" stroke-width="3.5866" stroke-miterlimit="10"/>
<path d="M80.7695 108.0312C80.6523 110.8672 82.8711 113.2773 85.7031 113.3945C88.5391 113.5117 90.9492 111.2891 91.0664 108.457C91.1836 105.625 88.9609 103.2148 86.1289 103.0977C83.2969 102.9805 80.8867 105.2031 80.7695 108.0312" fill="#21599e"/>
<path d="M53.8477 76.2305C53.7344 79.0625 55.957 81.4727 58.7852 81.5898C61.6211 81.707 64.0313 79.4844 64.1484 76.6523C64.2617 73.8242 62.043 71.4102 59.2148 71.293C56.3789 71.1758 53.9688 73.3945 53.8477 76.2305" fill="#21599e"/>
<path d="M63.4297 60.0078C63.3125 62.8398 65.5313 65.25 68.3672 65.3711C71.1992 65.4844 73.6094 63.2656 73.7266 60.4336C73.8438 57.5977 71.6211 55.187 68.7891 55.07C65.9609 54.953 63.5469 57.1758 63.4297 60.0078" fill="#21599e"/>
<path d="M243.988 97.7539C243.875 100.582 246.094 102.9961 248.926 103.1133C251.758 103.2266 254.168 101.0078 254.289 98.1758C254.402 95.3437 252.184 92.9297 249.352 92.8125S244.105 94.918 243.988 97.7539" fill="#ad3040"/>
<path d="M209.012 88.8086C208.895 91.6445 211.117 94.0547 213.949 94.1719S219.191 92.0664 219.309 89.2383C219.426 86.4023 217.203 83.9922 214.375 83.875C211.543 83.7578 209.129 85.9805 209.012 88.8086" fill="#ad3040"/>
<path d="M217.566 58.2227C217.449 61.0547 219.672 63.4687 222.504 63.582C225.332 63.6992 227.746 61.4766 227.863 58.6484C227.98 55.816 225.762 53.402 222.926 53.285C220.098 53.168 217.684 55.391 217.566 58.2227" fill="#ad3040"/>
<path d="M70.7969 51.918C76.5625 41.48 85.7891 33.504 96.0039 28.082C106.219 22.66 117.426 19.645 128.684 17.547C137.449 15.91 146.414 14.809 155.238 16.004C163.5 17.125 171.391 20.215 179.195 23.285C192.98 28.707 207.434 34.633 217.336 45.891" stroke="#262626" fill="none" stroke-width="1.79329" stroke-miterlimit="10"/>
<path d="M216.996 45.551C215.238 45.375 212.953 46.48 211.594 47.531C214.457 47.395 217.422 47.844 220 49.215C219.129 46.449 219.426 43.453 220 40.641C218.676 41.918 217.234 43.68 216.996 45.551" fill="#262626"/>
<path d="M92.875 116.293C104.441 127.2031 108.332 138.7266 122.453 146.0273C131.887 150.90234 142.008 155.0664 152.613 155.32421C165.25 155.628901 177.285 150.40234 188.84 145.2734C200.379 140.1523 211.922 135.0312 223.461 129.9102C228.48 127.6836 233.563 125.418 237.84 121.9727C240.996 119.4258 243.703 116.1289 245.148 112.3789" stroke="#262626" fill="none" stroke-width="1.79329" stroke-miterlimit="10"/>
<path d="M244.941 112.8242C245.824 114.3516 248.059 115.5625 249.703 116.0547C247.922 113.8047 246.559 111.1367 246.164 108.2461C244.426 110.5703 241.82 112.0781 239.203 113.25C241.012 113.582 243.281 113.7227 244.941 112.8242" fill="#262626"/>
<path d="M62.5469 83.8711C73.2344 94.6641 88.293 99.7578 102.957 103.707C120.336 108.3906 138.199 111.9883 156.191 111.4961C172.762 111.0469 189.551 106.9102 203.336 97.8125" stroke="#262626" fill="none" stroke-width="1.79329" stroke-miterlimit="10"/>
<path d="M202.922 98.0586C202.609 99.793 203.527 102.1641 204.465 103.6016C204.563 100.7344 205.242 97.8164 206.816 95.3594C203.988 96.0039 201.027 95.4687 198.27 94.6719C199.438 96.0977 201.074 97.6719 202.922 98.0586" fill="#262626"/>
</g>
</g>
</svg>